<svg id="Layer_3" data-name="Layer 3" xmlns="http://www.w3.org/2000/svg" viewBox="0 0 50 17.37"><defs><style>.cls-1{fill:#e53946;}.cls-2{fill:#1c3557;}</style></defs><path class="cls-1" d="M283.93,425.1a2.36,2.36,0,0,1-.81.41,3.68,3.68,0,0,1-1.16.17,4.09,4.09,0,0,1-1.41-.22,1.14,1.14,0,0,1-.74-.74c-.62-1.73-1.14-3.16-1.57-4.31s-.76-2.13-1-3h-.14c-.05,1.15-.1,2.19-.14,3.14s-.06,1.86-.08,2.76,0,1.82-.08,2.74-.09,1.95-.16,3.06l-.81.19a4.84,4.84,0,0,1-1,.11,3.13,3.13,0,0,1-1.63-.36,1.3,1.3,0,0,1-.58-1.22c0-.4,0-1,.07-1.79s.1-1.7.16-2.73.13-2.11.19-3.25.14-2.28.22-3.4.16-2.15.23-3.09a2.44,2.44,0,0,1,.87-.67,3.93,3.93,0,0,1,1.8-.34,4.3,4.3,0,0,1,2,.39,2.31,2.31,0,0,1,1.08,1.3c.27.65.56,1.41.87,2.27s.61,1.74.91,2.62.58,1.68.83,2.39H282q.76-2.4,1.57-4.69c.53-1.53,1-2.8,1.38-3.82a3.34,3.34,0,0,1,1-.34,6.21,6.21,0,0,1,1.24-.12,4.46,4.46,0,0,1,1.9.34,1.43,1.43,0,0,1,.86,1c.07.35.15.89.23,1.64s.17,1.6.26,2.57.18,2,.27,3.06.18,2.1.26,3.11.15,1.91.2,2.71.1,1.44.11,1.91a3.85,3.85,0,0,1-.86.37,4.44,4.44,0,0,1-1.13.12,3.08,3.08,0,0,1-1.48-.33,1.39,1.39,0,0,1-.67-1.25c-.09-1.42-.16-2.77-.22-4.05s-.09-2.46-.12-3.52-.06-2-.1-2.74h-.13c-.24.78-.57,1.77-1,3S284.56,423.23,283.93,425.1Z" transform="translate(-272.64 -412.26)"/><path class="cls-2" d="M295.32,427.39a2.19,2.19,0,0,1,.24-1,2.16,2.16,0,0,1,.57-.72,9.12,9.12,0,0,0,1.5.53,7,7,0,0,0,1.61.2,4.77,4.77,0,0,0,2.18-.46,3.38,3.38,0,0,0,1.46-1.39,4.2,4.2,0,0,0,.51-2.24,4.32,4.32,0,0,1-.85.53,5.5,5.5,0,0,1-1.14.43,5.6,5.6,0,0,1-1.42.16,6.68,6.68,0,0,1-2.88-.6,4.64,4.64,0,0,1-2-1.8,5.65,5.65,0,0,1-.74-3,5.82,5.82,0,0,1,.74-2.93,5.43,5.43,0,0,1,2.15-2.07,7,7,0,0,1,3.41-.78,6.67,6.67,0,0,1,3.61.94,6.23,6.23,0,0,1,2.35,2.78,11,11,0,0,1,.83,4.52,11.75,11.75,0,0,1-1,5.12,6.65,6.65,0,0,1-2.68,3,7.77,7.77,0,0,1-4,1,7.85,7.85,0,0,1-3.26-.57A1.8,1.8,0,0,1,295.32,427.39Zm5.56-7.06a3.11,3.11,0,0,0,1.38-.33,2.72,2.72,0,0,0,1-.81V419a4.34,4.34,0,0,0-.67-2.61,2.29,2.29,0,0,0-2-.91,2.12,2.12,0,0,0-1.65.67,2.52,2.52,0,0,0-.61,1.78,2.23,2.23,0,0,0,.72,1.79A2.66,2.66,0,0,0,300.88,420.33Z" transform="translate(-272.64 -412.26)"/><path class="cls-2" d="M310.5,427.39a2.2,2.2,0,0,1,.25-1,1.94,1.94,0,0,1,.57-.72,9.12,9.12,0,0,0,1.5.53,7,7,0,0,0,1.61.2,4.8,4.8,0,0,0,2.18-.46,3.38,3.38,0,0,0,1.46-1.39,4.2,4.2,0,0,0,.5-2.24,4.21,4.21,0,0,1-.84.53,5.59,5.59,0,0,1-1.15.43,5.52,5.52,0,0,1-1.41.16,6.65,6.65,0,0,1-2.88-.6,4.59,4.59,0,0,1-2-1.8,5.65,5.65,0,0,1-.74-3,5.82,5.82,0,0,1,.74-2.93,5.37,5.37,0,0,1,2.15-2.07,7,7,0,0,1,3.41-.78,6.67,6.67,0,0,1,3.61.94,6.23,6.23,0,0,1,2.35,2.78,11,11,0,0,1,.83,4.52,11.89,11.89,0,0,1-1,5.12,6.67,6.67,0,0,1-2.69,3,7.72,7.72,0,0,1-4,1,7.91,7.91,0,0,1-3.26-.57A1.82,1.82,0,0,1,310.5,427.39Zm5.57-7.06a3,3,0,0,0,1.37-.33,2.68,2.68,0,0,0,1-.81V419a4.41,4.41,0,0,0-.67-2.61,2.3,2.3,0,0,0-2-.91,2.12,2.12,0,0,0-1.65.67,2.52,2.52,0,0,0-.61,1.78,2.23,2.23,0,0,0,.72,1.79A2.66,2.66,0,0,0,316.07,420.33Z" transform="translate(-272.64 -412.26)"/></svg>